HIERARCHY
ROOT Hips
{
	OFFSET 0.000000 0.000000 0.000000
	CHANNELS 6 Xposition Yposition Zposition Zrotation Xrotation Yrotation
	JOINT RightUpLeg
	{
		OFFSET -9.711200 0.000000 0.000000
		CHANNELS 3 Zrotation Xrotation Yrotation
		JOINT RightLeg
		{
			OFFSET 0.000000 -42.071800 0.000000
			CHANNELS 3 Zrotation Xrotation Yrotation
			JOINT RightFoot
			{
				OFFSET 0.000000 -40.121000 0.000000
				CHANNELS 3 Zrotation Xrotation Yrotation
				JOINT RightToe
				{
					OFFSET 0.000000 -9.631400 3.100600
					CHANNELS 3 Zrotation Xrotation Yrotation
					JOINT RightToeEnd
					{
						OFFSET 0.000000 -4.048200 4.118000
						CHANNELS 3 Zrotation Xrotation Yrotation
						End Site
						{
						    OFFSET 0.000000 -3.505200 3.565600
						}
					}
				}
			}
		}
	}
	JOINT LeftUpLeg
	{
		OFFSET 9.711200 0.000000 0.000000
		CHANNELS 3 Zrotation Xrotation Yrotation
		JOINT LeftLeg
		{
			OFFSET 0.000000 -42.071800 0.000000
			CHANNELS 3 Zrotation Xrotation Yrotation
			JOINT LeftFoot
			{
				OFFSET 0.000000 -40.121000 0.000000
				CHANNELS 3 Zrotation Xrotation Yrotation
				JOINT LeftToe
				{
					OFFSET 0.000000 -9.631400 3.100600
					CHANNELS 3 Zrotation Xrotation Yrotation
					JOINT LeftToeEnd
					{
						OFFSET 0.000000 -4.048200 4.118000
						CHANNELS 3 Zrotation Xrotation Yrotation
						End Site
						{
						    OFFSET 0.000000 -3.505200 3.565600
						}
					}
				}
			}
		}
	}
	JOINT Spine
	{
		OFFSET 0.000000 14.595200 0.000000
		CHANNELS 3 Zrotation Xrotation Yrotation
		JOINT Spine1
		{
			OFFSET 0.000000 9.770300 0.000000
			CHANNELS 3 Zrotation Xrotation Yrotation
			JOINT Spine2
			{
				OFFSET 0.000000 14.330100 0.000000
				CHANNELS 3 Zrotation Xrotation Yrotation
				JOINT LeftShoulder
				{
					OFFSET 2.000000 14.330100 0.000000
					CHANNELS 3 Zrotation Xrotation Yrotation
					JOINT LeftArm
					{
						OFFSET 14.369100 0.000000 0.000000
						CHANNELS 3 Zrotation Xrotation Yrotation
						JOINT LeftForeArm
						{
							OFFSET 0.000000 -27.196400 0.000000
							CHANNELS 3 Zrotation Xrotation Yrotation
							JOINT LeftHand
							{
								OFFSET 0.000000 -24.849000 0.000000
								CHANNELS 3 Zrotation Xrotation Yrotation
								JOINT LeftFinger0
								{
									OFFSET 0.000000 -7.367300 0.000000
									CHANNELS 3 Zrotation Xrotation Yrotation
									End Site
									{
									    OFFSET 0.000000 -5.000000 0.000000
									}
								}
							}
						}
					}
				}
				JOINT RightShoulder
				{
					OFFSET -2.000000 14.330100 0.000000
					CHANNELS 3 Zrotation Xrotation Yrotation
					JOINT RightArm
					{
						OFFSET -14.369100 0.000000 0.000000
						CHANNELS 3 Zrotation Xrotation Yrotation
						JOINT RightForeArm
						{
							OFFSET 0.000000 -27.196400 0.000000
							CHANNELS 3 Zrotation Xrotation Yrotation
							JOINT RightHand
							{
								OFFSET 0.000000 -24.849000 0.000000
								CHANNELS 3 Zrotation Xrotation Yrotation
								JOINT RightFinger0
								{
									OFFSET 0.000000 -7.367300 0.000000
									CHANNELS 3 Zrotation Xrotation Yrotation
									End Site
									{
									    OFFSET 0.000000 -5.000000 0.000000
									}
								}
							}
						}
					}
				}
				JOINT Neck
				{
					OFFSET 0.000000 14.330100 0.000000
					CHANNELS 3 Zrotation Xrotation Yrotation
					JOINT Head
					{
						OFFSET 0.000000 8.944300 0.000000
						CHANNELS 3 Zrotation Xrotation Yrotation
						JOINT HeadTip
						{
							OFFSET 0.000000 10.000000 0.000000
							CHANNELS 3 Zrotation Xrotation Yrotation
							End Site
							{
							    OFFSET 0.000000 5.000000 0.000000
							}
						}
					}
				}
			}
		}
	}
}
MOTION
Frames:	4
Frame Time:	0.033332
-267.563100 87.814600 -70.110400 3.937627 -2.420299 94.456690 3.081702 -0.397388 -18.388123 -0.000000 8.984517 -0.000000 -14.431028 -47.086673 -32.258041 0.000000 -3.212107 -0.000000 0.000000 0.000000 -0.000000 11.192148 -16.816983 11.954043 -0.000000 15.509360 -0.000000 -6.352539 -40.163377 -14.223735 -0.000000 3.929728 0.000000 0.000000 -0.000000 0.000000 10.090447 8.602764 3.024874 -0.000000 6.341094 0.000000 0.000000 -0.000000 -0.000000 -9.275636 -0.000000 4.945806 22.942984 -0.390403 -19.285087 -0.000000 -46.401815 -0.000000 -6.741522 12.294651 -32.738350 -0.000000 -0.000000 -0.000000 8.319259 0.000000 -0.953406 -31.788527 -17.092980 25.713338 -0.000102 -33.747982 -0.000031 6.185234 11.017639 17.170913 -0.000000 0.000000 -0.000000 0.000000 -0.000000 -0.000000 1.551453 2.840759 -15.535483 -0.000000 0.000000 0.000000 
-266.288300 87.679600 -70.570800 3.810873 -2.974461 93.461175 3.338283 0.250516 -17.673261 -0.000000 9.084275 -0.000000 -13.977643 -48.038715 -32.244147 -0.000000 -3.099445 -0.000000 -0.000000 0.000000 0.000000 11.297554 -16.669619 11.805416 0.000000 10.166168 -0.000000 -8.176612 -39.677914 -14.625129 -0.000000 3.817284 -0.000000 -0.000000 0.000000 -0.000000 10.198945 8.474542 2.858342 -0.000000 6.383088 0.000000 -0.000000 0.000000 -0.000000 -9.439360 0.000000 5.041707 23.431351 0.356774 -19.461447 0.000000 -44.727076 0.000000 -7.209265 12.828879 -33.409995 -0.000000 -0.000000 -0.000000 8.542343 -0.000000 -1.172502 -31.303029 -16.089958 26.558581 -0.000100 -33.328007 -0.000030 6.330196 11.128535 17.561387 -0.000000 0.000000 -0.000000 -0.000000 0.000000 -0.000000 1.554464 3.226806 -14.609522 -0.000000 0.000000 0.000000 
-264.882000 87.506900 -71.071600 3.736653 -3.558355 92.333197 3.539938 0.989429 -16.980789 -0.000000 9.278132 -0.000000 -13.292889 -49.051218 -31.967896 0.000000 -3.141767 -0.000000 0.000000 -0.000000 0.000000 11.394280 -16.449256 11.079407 -0.000000 6.503976 -0.000000 -9.617720 -40.030038 -14.263116 -0.000000 3.624802 0.000000 -0.000000 0.000000 0.000000 10.196275 8.310818 2.663382 0.000000 6.425385 -0.000000 0.000000 0.000000 0.000000 -9.625027 0.000000 5.127274 24.107699 1.111826 -19.366025 0.000000 -43.022076 -0.000000 -7.268603 13.435762 -33.449252 -0.000000 0.000000 0.000000 8.956312 0.000000 -1.404308 -31.083436 -14.836995 27.065867 -0.000098 -32.913941 -0.000029 6.371592 11.406831 18.024989 -0.000000 -0.000000 -0.000000 0.000000 0.000000 0.000000 1.723399 3.615697 -13.517583 -0.000000 0.000000 -0.000000 
-263.333800 87.292700 -71.680000 3.784739 -4.182869 91.302216 3.714732 1.939216 -16.290851 0.000000 9.507630 -0.000000 -12.920547 -50.027961 -31.955672 -0.000000 -3.315760 -0.000000 -0.000000 -0.000000 -0.000000 11.479226 -16.441767 9.538288 -0.000000 5.891831 0.000000 -9.199626 -40.474181 -13.847057 -0.000000 3.041903 -0.000000 -0.000000 0.000000 0.000000 10.246700 8.167472 2.298013 0.000000 6.437290 0.000000 0.000000 -0.000000 -0.000000 -9.813441 -0.000000 5.192421 24.689424 1.828195 -18.794727 -0.000000 -41.167724 0.000000 -7.271379 14.010378 -33.461308 0.000000 -0.000000 -0.000000 9.260430 -0.000000 -1.717466 -30.941612 -13.379824 27.244785 -0.000097 -32.437699 -0.000028 6.227935 11.474544 18.293296 0.000000 0.000000 -0.000000 0.000000 -0.000000 -0.000000 1.853549 3.989244 -12.412949 0.000000 0.000000 0.000000 
